<svg id="Capa_1" enable-background="new 0 0 512 512" height="512" viewBox="0 0 512 512" width="512" xmlns="http://www.w3.org/2000/svg"><g><g><circle cx="401.708" cy="385.831" r="42.24"/><path d="m473.801 381.431h38.199v-37.84h-51.743c7.795 10.774 12.694 23.766 13.544 37.84z"/><path d="m176.788 381.431h152.826c.85-14.074 5.75-27.067 13.544-37.84h-179.914c7.794 10.774 12.694 23.766 13.544 37.84z"/><path d="m462.38 166.782h-45.672v70.489h95.292z"/><circle cx="104.694" cy="385.831" r="42.24"/><path d="m416.708 267.271h95.292v46.32h-95.292z"/><path d="m190.736 205.7v-25.75l-13.66 25.75z"/><path d="m0 381.431h32.601c.85-14.074 5.75-27.067 13.544-37.84h-46.145z"/></g><path d="m386.708 83.928h-386.708v229.663h386.708zm-165.972 181.184h-30v-29.442h-64.625v29.969h-80.549l.089-24.668s15.441-16.469 41.108-53.142c5.693-8.134 8.007-13.898 8.934-17.453l.279-2.183c-.399-6.522-5.833-11.707-12.454-11.707-5.951 0-11.1 4.224-12.243 10.042l-29.438-5.782c3.899-19.852 21.428-34.26 41.68-34.26 23.422 0 42.478 19.055 42.478 42.477v.955l-.748 5.851-.171.737c-2.046 8.825-6.669 18.422-13.74 28.525-9.036 12.91-16.396 22.973-22.219 30.639h36.993l55.46-102.459h39.165v131.901zm112.131 0h-30v-53.293h-26.325v53.293h-30v-132.058h30v48.764h26.325v-48.764h30z"/></g></svg>