<svg viewBox="0 0 64 64" xmlns="http://www.w3.org/2000/svg"><g id="fast_delivery_truck" data-name="fast delivery truck"><path d="m50 56a1 1 0 0 0 0 2 1 1 0 0 0 0-2z"/><path d="m50 51c-7.93.25-7.93 11.75 0 12 7.93-.25 7.93-11.75 0-12zm0 9a3 3 0 0 1 0-6 3 3 0 0 1 0 6z"/><path d="m15 56a1 1 0 0 0 0 2 1 1 0 0 0 0-2z"/><path d="m15 51c-7.93.25-7.93 11.75 0 12 7.93-.25 7.93-11.75 0-12zm0 9a3 3 0 0 1 0-6 3 3 0 0 1 0 6z"/><path d="m43.73 31-1.11 7.03 7.58-.03-1.36-7z"/><path d="m23 21h.94a9 9 0 0 0 -7.94-7.94v.94a1 1 0 0 1 -2 0v-.94a9 9 0 0 0 -7.94 7.94h.94a1 1 0 0 1 0 2h-.94a9 9 0 0 0 7.94 7.94v-.94a1 1 0 0 1 2 0v.94a9 9 0 0 0 7.94-7.94h-.94a1 1 0 0 1 0-2zm-3.17 5.83a1 1 0 0 1 -1.42 0l-4.24-4.24a1 1 0 0 1 1.42-1.42l4.24 4.24a1 1 0 0 1 0 1.42z"/><path d="m1 22c.56 17.74 25.84 19 27.93 1.27a14 14 0 0 0 -6-12.82l.48-.77c.32.16 1 .72 1.37.67a1 1 0 0 0 .53-1.85l-3.4-2.1a1 1 0 0 0 -1.05 1.7l.85.52-.52.83a13.78 13.78 0 0 0 -5.19-1.4v-1.05h2a1 1 0 0 0 1-.68l1-3a1 1 0 0 0 -1-1.32h-8a1 1 0 0 0 -.95 1.32l1 3a1 1 0 0 0 .95.68h2v1.05a13.78 13.78 0 0 0 -5.16 1.4l-.52-.83.85-.52a1 1 0 0 0 -1.05-1.7l-3.4 2.1a1 1 0 0 0 .53 1.85c.38.05 1-.51 1.37-.67l.48.77a14 14 0 0 0 -6.1 11.55zm25 0a11 11 0 0 1 -11 11c-14.59-.6-14.59-21.4 0-22a11 11 0 0 1 11 11z"/><path d="m58 52h3.72l1.28-8.86a1 1 0 0 0 -.49-1l-6.63-3.79-2.88-11.59a1 1 0 0 0 -1-.76h-10.43l.43-2.85a1 1 0 0 0 -1-1.15l-11 .13c0 .42 0 .84-.06 1.24-1.11 13.33-18.13 18.44-26.54 8.11l-1.08 11.52h34.73l-.3 2h-34.62l-.19 2h34.52l-.29 2h-34.42l-.28 3h4.53a1 1 0 0 1 0 2h-4.72l-.28 2.91a1 1 0 0 0 .26.76 1 1 0 0 0 .74.33h6.08a7 7 0 1 1 13.84 0h21.16a7 7 0 1 1 13.84 0c4.77 0 3.78.61 4.52-4h-3.44a1 1 0 0 1 0-2zm-13-8h-4a1 1 0 0 1 0-2h4a1 1 0 0 1 0 2zm7.19-4.37a1 1 0 0 1 -.77.37h-10a1 1 0 0 1 -1-1.16l1.43-9a1 1 0 0 1 1-.84h6.79a1 1 0 0 1 1 .81l1.75 9a1 1 0 0 1 -.2.82z"/></g></svg>