<svg id="Layer_1" height="512" viewBox="0 0 512 512" width="512" xmlns="http://www.w3.org/2000/svg" data-name="Layer 1"><path d="m172.217 205.688h-14.039a18.533 18.533 0 0 1 -18.45-18.577v-13.247a18.533 18.533 0 0 1 18.45-18.576h24.222a18.393 18.393 0 0 1 17.736 13.723zm197.76 31.338-9.791 39.1a12.841 12.841 0 0 0 12.455 15.961h102.477l-30.095-64.8h-62.591a12.827 12.827 0 0 0 -12.455 9.739zm-184.277 33.462a18.533 18.533 0 0 0 18.45-18.577v-13.247a18.533 18.533 0 0 0 -18.45-18.576h-6.341l-34.788 45.705a18.349 18.349 0 0 0 12.251 4.695zm-16.1 147.6c-1.488 42.977-63.282 42.88-64.8.221 1.207-43.123 63.354-43.25 64.8-.221zm-18.284-2.809a12.953 12.953 0 0 0 -.8-2.735 11.735 11.735 0 0 0 -1.367-2.451 14.33 14.33 0 0 0 -14.759-6.117 14.512 14.512 0 0 0 -10.512 8.568c-5.847 14.68 12.385 26.639 23.544 15.693a14.366 14.366 0 0 0 3.89-12.958zm-118.516-65.591v57.6a7.21 7.21 0 0 0 7.2 7.2h50.7c5.653-57.1 87.555-56.886 93.034 0h108.266v-64.8zm424.8-21.6h21.6v-21.6h-106.559c-17.2.461-31.05-17.277-26.426-33.86l9.79-39.1a27.212 27.212 0 0 1 26.427-20.64h55.9l-10-21.537a12.868 12.868 0 0 0 -11.562-7.263h-110.37v230.4h50.7c5.653-57.1 87.555-56.886 93.034 0h16.231a12.852 12.852 0 0 0 12.835-12.836v-59.164h-21.6c-9.415-.041-9.415-14.36 0-14.4zm-21.6 90c-1.488 42.977-63.282 42.88-64.8.221 1.207-43.123 63.354-43.25 64.8-.221zm-35.2-14.112a12.938 12.938 0 0 0 -2.735.791 14.443 14.443 0 0 0 -4.609 3.168 10.161 10.161 0 0 0 -1.8 2.158 11.74 11.74 0 0 0 -1.368 2.451 12.938 12.938 0 0 0 -.791 2.735 14.178 14.178 0 0 0 3.959 12.958 14.2 14.2 0 0 0 22.1-2.158 11.708 11.708 0 0 0 1.367-2.447 12.987 12.987 0 0 0 .8-2.739c2.262-9.682-7.27-19.138-16.932-16.917zm-94.4-320.688c0-11.911-9.373-21.6-20.9-21.6h-231.8c-11.524 0-20.9 9.689-20.9 21.6v7.2h273.6zm-259.2 21.6h244.8v230.4h-244.8zm63.33 205.622 25.313-33.257c7.143 6.318 17.088 8.232 26.557 7.635v21.6a7.2 7.2 0 0 0 14.4 0v-21.6h8.9a32.952 32.952 0 0 0 32.85-32.977v-13.247a32.873 32.873 0 0 0 -28.562-32.541l50.147-65.885c5.673-7.522-5.734-16.184-11.46-8.719l-18.738 24.611c-6.732-11.13-20.015-16.43-33.137-15.242v-14.4a7.2 7.2 0 0 0 -14.4 0v14.4c-19.507-1.857-37.188 12.991-37.072 32.976v13.247c-.088 19.444 16.783 34.434 35.929 32.977l-31.87 41.871c-.012.018-.026.033-.038.05l-30.279 39.782c-5.662 7.503 5.703 16.195 11.46 8.719z"/></svg>